{"title":"Serpendity -  DVD Rip By Haunting Summer","uid":5697836,"size":723664896,"categoryP":"other","categoryS":"other","magnet":"?xt=urn:btih:d3157e81ada1c83a01d5a32d40df15d19674a93a&amp;dn=Serpendity+-++DVD+Rip+By+Haunting+Summer&amp;tr=udp%3A%2F%2Ftracker.openbittorrent.com%3A80&amp;tr=udp%3A%2F%2Fopen.demonii.com%3A1337&amp;tr=udp%3A%2F%2Ftracker.coppersurfer.tk%3A6969&amp;tr=udp%3A%2F%2Fexodus.desync.com%3A6969","seeders":1,"leechers":0,"uploader":"HaUnTiNg.SuMMeR","files":1,"time":1279375296,"description":"Format                           : AVI\nFormat/Info                      : Audio Video Interleave\nFile size                        : 690 MiB\nDuration                         : 1h 27mn\nOverall bit rate                 : 1 098 Kbps\nWriting application              : Nandub v1.0rc2\nWriting library                  : Nandub build 1853/release\n\nVideo\nID                               : 0\nFormat                           : MPEG-4 Visual\nCodec ID                         : DIV3\nCodec ID/Hint                    : DivX 3 Low\nDuration                         : 1h 27mn\nBit rate                         : 954 Kbps\nWidth                            : 640 pixels\nHeight                           : 352 pixels\nDisplay aspect ratio             : 16:9\nFrame rate                       : 23.976 fps\nColor space                      : YUV\nChroma subsampling               : 4:2:0\nBit depth                        : 8 bits\nBits/(Pixel*Frame)               : 0.177\nStream size                      : 600 MiB (87%)\n\nAudio\nID                               : 1\nFormat                           : MPEG Audio\nFormat version                   : Version 1\nFormat profile                   : Layer 3\nMode                             : Joint stereo\nMode extension                   : MS Stereo\nCodec ID                         : 55\nCodec ID/Hint                    : MP3\nDuration                         : 1h 27mn\nBit rate mode                    : Variable\nBit rate                         : 131 Kbps\nMinimum bit rate                 : 128 Kbps\nChannel(s)                       : 2 channels\nSampling rate                    : 48.0 KHz\nStream size                      : 82.5 MiB (12%)\nAlignment                        : Aligned on interleaves\nInterleave, duration             : 24 ms (0.58 video frame)\nInterleave, preload duration     : 468 ms\nWriting library                  : LAME3.91 \nEncoding settings                : -m j -V 4 -q 2 -lowpass 15 --vbr-old -b 128\n\n\n\n_+++++++++_+______________++++++++++++_screenshots_++++++++++++++++_________+++\n\n                     &lt;a href=&quot; http://bayimg.com/haNgEAacl&quot; rel=&quot;nofollow&quot; target=&quot;_NEW&quot;&gt; http://bayimg.com/haNgEAacl&lt;/a&gt;\n\n_+++++++++_+______________++++++++++++_screenshots_++++++++++++++++_________+++\n\n","torrent":{"xt":"urn:btih:d3157e81ada1c83a01d5a32d40df15d19674a93a","amp;dn":"Serpendity+-++DVD+Rip+By+Haunting+Summer","amp;tr":["udp%3A%2F%2Ftracker.openbittorrent.com%3A80","udp%3A%2F%2Fopen.demonii.com%3A1337","udp%3A%2F%2Ftracker.coppersurfer.tk%3A6969","udp%3A%2F%2Fexodus.desync.com%3A6969"],"infoHash":"d3157e81ada1c83a01d5a32d40df15d19674a93a","infoHashBuffer":{"type":"Buffer","data":[211,21,126,129,173,161,200,58,1,213,163,45,64,223,21,209,150,116,169,58]},"announce":[],"urlList":[]}}